<svg xmlns="http://www.w3.org/2000/svg" width="375" viewBox="0 0 375 375" height="375" version="1.0"><defs><clipPath id="a"><path d="M 130.210938 68 L 244.960938 68 L 244.960938 221 L 130.210938 221 Z M 130.210938 68"/></clipPath></defs><path fill="#FFDDDF" d="M 197.554688 108.800781 L 229.960938 141.050781 C 230.84375 141.929688 231.683594 142.847656 232.476562 143.808594 C 233.269531 144.773438 234.015625 145.769531 234.710938 146.804688 C 235.40625 147.839844 236.046875 148.90625 236.636719 150.003906 C 237.226562 151.101562 237.761719 152.222656 238.238281 153.375 C 238.71875 154.523438 239.140625 155.695312 239.503906 156.886719 C 239.867188 158.078125 240.171875 159.285156 240.414062 160.503906 C 240.660156 161.726562 240.839844 162.957031 240.964844 164.195312 C 241.085938 165.433594 241.148438 166.675781 241.148438 167.921875 C 241.148438 169.167969 241.085938 170.410156 240.964844 171.648438 C 240.839844 172.886719 240.660156 174.117188 240.414062 175.339844 C 240.171875 176.558594 239.867188 177.765625 239.503906 178.957031 C 239.140625 180.148438 238.71875 181.320312 238.238281 182.46875 C 237.761719 183.621094 237.226562 184.742188 236.636719 185.839844 C 236.046875 186.9375 235.40625 188.003906 234.710938 189.039062 C 234.015625 190.074219 233.269531 191.070312 232.476562 192.035156 C 231.683594 192.996094 230.84375 193.914062 229.960938 194.792969 L 219.15625 205.542969 C 218.273438 206.425781 217.34375 207.257812 216.378906 208.050781 C 215.410156 208.839844 214.40625 209.578125 213.367188 210.269531 C 212.324219 210.960938 211.253906 211.601562 210.152344 212.1875 C 209.046875 212.773438 207.917969 213.304688 206.761719 213.78125 C 205.605469 214.257812 204.429688 214.675781 203.234375 215.039062 C 202.039062 215.398438 200.828125 215.699219 199.601562 215.945312 C 198.375 216.1875 197.140625 216.367188 195.894531 216.492188 C 194.648438 216.613281 193.402344 216.671875 192.152344 216.671875 C 190.902344 216.671875 189.65625 216.613281 188.410156 216.492188 C 187.167969 216.367188 185.933594 216.1875 184.707031 215.945312 C 183.480469 215.699219 182.269531 215.398438 181.070312 215.039062 C 179.875 214.675781 178.699219 214.257812 177.542969 213.78125 C 176.386719 213.304688 175.257812 212.773438 174.15625 212.1875 C 173.050781 211.601562 171.980469 210.960938 170.941406 210.269531 C 169.898438 209.578125 168.894531 208.839844 167.929688 208.050781 C 166.960938 207.257812 166.035156 206.425781 165.148438 205.542969 L 138.140625 178.667969 C 137.609375 178.140625 137.132812 177.5625 136.714844 176.941406 C 136.300781 176.320312 135.945312 175.664062 135.660156 174.972656 C 135.371094 174.28125 135.152344 173.566406 135.007812 172.832031 C 134.859375 172.097656 134.785156 171.355469 134.785156 170.609375 C 134.785156 169.859375 134.859375 169.117188 135.007812 168.382812 C 135.152344 167.648438 135.371094 166.9375 135.660156 166.242188 C 135.945312 165.550781 136.300781 164.894531 136.714844 164.273438 C 137.132812 163.652344 137.609375 163.074219 138.140625 162.546875 C 138.671875 162.015625 139.253906 161.542969 139.878906 161.128906 C 140.503906 160.714844 141.164062 160.363281 141.859375 160.074219 C 142.554688 159.789062 143.269531 159.574219 144.007812 159.425781 C 144.746094 159.28125 145.492188 159.207031 146.242188 159.207031 C 146.996094 159.207031 147.738281 159.28125 148.476562 159.425781 C 149.214844 159.574219 149.929688 159.789062 150.625 160.074219 C 151.320312 160.363281 151.980469 160.714844 152.609375 161.128906 C 153.234375 161.542969 153.8125 162.015625 154.34375 162.546875 L 157.046875 165.234375 L 146.242188 154.484375 C 145.710938 153.957031 145.234375 153.382812 144.816406 152.757812 C 144.402344 152.136719 144.046875 151.480469 143.757812 150.789062 C 143.472656 150.097656 143.253906 149.382812 143.109375 148.648438 C 142.960938 147.914062 142.886719 147.171875 142.886719 146.421875 C 142.886719 145.675781 142.960938 144.933594 143.109375 144.199219 C 143.253906 143.464844 143.472656 142.75 143.757812 142.058594 C 144.046875 141.367188 144.402344 140.710938 144.816406 140.085938 C 145.234375 139.464844 145.710938 138.890625 146.242188 138.359375 C 146.777344 137.832031 147.355469 137.359375 147.980469 136.941406 C 148.605469 136.527344 149.265625 136.175781 149.960938 135.890625 C 150.65625 135.601562 151.375 135.386719 152.109375 135.242188 C 152.847656 135.09375 153.59375 135.023438 154.34375 135.023438 C 155.097656 135.023438 155.84375 135.09375 156.578125 135.242188 C 157.316406 135.386719 158.035156 135.601562 158.730469 135.890625 C 159.421875 136.175781 160.085938 136.527344 160.710938 136.941406 C 161.335938 137.359375 161.914062 137.832031 162.449219 138.359375 L 170.550781 146.421875 L 157.046875 132.984375 C 156.511719 132.457031 156.039062 131.882812 155.617188 131.261719 C 155.199219 130.636719 154.847656 129.980469 154.558594 129.289062 C 154.269531 128.597656 154.050781 127.882812 153.902344 127.148438 C 153.757812 126.414062 153.683594 125.671875 153.683594 124.925781 C 153.683594 124.175781 153.757812 123.433594 153.902344 122.699219 C 154.050781 121.964844 154.269531 121.25 154.558594 120.558594 C 154.847656 119.867188 155.199219 119.210938 155.617188 118.589844 C 156.039062 117.964844 156.511719 117.390625 157.046875 116.863281 C 157.578125 116.332031 158.15625 115.859375 158.785156 115.445312 C 159.410156 115.03125 160.070312 114.679688 160.765625 114.390625 C 161.460938 114.105469 162.175781 113.890625 162.914062 113.742188 C 163.652344 113.597656 164.398438 113.523438 165.148438 113.523438 C 165.902344 113.523438 166.644531 113.597656 167.382812 113.742188 C 168.121094 113.890625 168.835938 114.105469 169.53125 114.390625 C 170.226562 114.679688 170.886719 115.03125 171.511719 115.445312 C 172.140625 115.859375 172.71875 116.332031 173.25 116.863281 L 184.050781 127.613281 L 148.4375 92.191406 C 147.90625 91.664062 147.429688 91.089844 147.011719 90.464844 C 146.59375 89.84375 146.238281 89.1875 145.949219 88.496094 C 145.660156 87.804688 145.441406 87.089844 145.296875 86.355469 C 145.148438 85.621094 145.074219 84.878906 145.074219 84.128906 C 145.074219 83.382812 145.148438 82.640625 145.296875 81.90625 C 145.441406 81.171875 145.660156 80.457031 145.949219 79.765625 C 146.238281 79.074219 146.59375 78.417969 147.011719 77.792969 C 147.429688 77.171875 147.90625 76.597656 148.4375 76.070312 C 148.972656 75.539062 149.550781 75.066406 150.175781 74.652344 C 150.800781 74.234375 151.460938 73.882812 152.15625 73.597656 C 152.851562 73.308594 153.570312 73.09375 154.304688 72.949219 C 155.042969 72.800781 155.789062 72.726562 156.539062 72.726562 C 157.292969 72.726562 158.039062 72.800781 158.777344 72.949219 C 159.511719 73.09375 160.230469 73.308594 160.925781 73.597656 C 161.621094 73.882812 162.28125 74.234375 162.90625 74.652344 C 163.53125 75.066406 164.109375 75.539062 164.644531 76.070312 L 197.554688 108.800781"/><path fill="#FCF1ED" d="M 157.046875 87.433594 L 189.957031 120.167969 L 222.363281 152.414062 C 223.703125 153.75 224.9375 155.175781 226.066406 156.695312 C 227.195312 158.210938 228.203125 159.804688 229.09375 161.472656 C 229.980469 163.144531 230.742188 164.867188 231.371094 166.652344 C 232 168.433594 232.496094 170.25 232.851562 172.105469 C 233.210938 173.964844 233.425781 175.835938 233.503906 177.722656 C 233.582031 179.609375 233.519531 181.496094 233.3125 183.371094 C 233.105469 185.25 232.761719 187.105469 232.28125 188.929688 C 231.796875 190.757812 231.179688 192.539062 230.429688 194.273438 C 231.289062 193.390625 232.101562 192.46875 232.871094 191.503906 C 233.636719 190.542969 234.355469 189.542969 235.027344 188.511719 C 235.699219 187.480469 236.316406 186.417969 236.882812 185.324219 C 237.449219 184.230469 237.960938 183.113281 238.421875 181.972656 C 238.878906 180.828125 239.277344 179.667969 239.625 178.488281 C 239.96875 177.304688 240.253906 176.109375 240.480469 174.902344 C 240.710938 173.691406 240.878906 172.476562 240.988281 171.25 C 241.09375 170.023438 241.144531 168.796875 241.132812 167.566406 C 241.121094 166.335938 241.050781 165.109375 240.921875 163.886719 C 240.789062 162.664062 240.601562 161.449219 240.351562 160.242188 C 240.101562 159.039062 239.796875 157.847656 239.429688 156.675781 C 239.066406 155.5 238.644531 154.34375 238.164062 153.210938 C 237.6875 152.078125 237.15625 150.96875 236.570312 149.886719 C 235.984375 148.804688 235.347656 147.75 234.65625 146.730469 C 233.96875 145.710938 233.234375 144.726562 232.449219 143.777344 C 231.664062 142.828125 230.832031 141.917969 229.960938 141.050781 L 197.554688 108.800781 L 164.644531 76.070312 C 164.109375 75.539062 163.53125 75.066406 162.90625 74.652344 C 162.28125 74.234375 161.621094 73.882812 160.925781 73.597656 C 160.230469 73.308594 159.511719 73.09375 158.777344 72.949219 C 158.039062 72.800781 157.292969 72.726562 156.539062 72.726562 C 155.789062 72.726562 155.042969 72.800781 154.304688 72.949219 C 153.570312 73.09375 152.851562 73.308594 152.15625 73.597656 C 151.460938 73.882812 150.800781 74.234375 150.175781 74.652344 C 149.550781 75.066406 148.972656 75.539062 148.4375 76.070312 C 147.289062 77.21875 146.425781 78.554688 145.851562 80.074219 C 145.277344 81.59375 145.042969 83.160156 145.144531 84.78125 C 146.160156 84.421875 147.207031 84.207031 148.285156 84.140625 C 149.363281 84.078125 150.425781 84.160156 151.480469 84.394531 C 152.53125 84.628906 153.53125 85.007812 154.476562 85.523438 C 155.425781 86.039062 156.28125 86.675781 157.046875 87.433594 Z M 157.046875 87.433594"/><path fill="#F280A0" d="M 187.96875 72.730469 C 186.382812 72.730469 168.972656 65.152344 168.972656 51.515625 C 168.960938 50.898438 169.011719 50.289062 169.128906 49.683594 C 169.242188 49.078125 169.417969 48.488281 169.65625 47.917969 C 169.890625 47.347656 170.183594 46.808594 170.535156 46.300781 C 170.882812 45.792969 171.28125 45.324219 171.726562 44.898438 C 172.171875 44.46875 172.65625 44.09375 173.183594 43.765625 C 173.707031 43.4375 174.257812 43.167969 174.839844 42.957031 C 175.417969 42.742188 176.015625 42.59375 176.625 42.503906 C 177.238281 42.414062 177.851562 42.386719 178.46875 42.425781 C 179.015625 42.433594 179.558594 42.488281 180.097656 42.585938 C 180.632812 42.683594 181.160156 42.824219 181.675781 43.007812 C 182.1875 43.195312 182.683594 43.417969 183.160156 43.683594 C 183.636719 43.953125 184.089844 44.253906 184.515625 44.59375 C 184.941406 44.9375 185.339844 45.308594 185.703125 45.714844 C 186.070312 46.121094 186.398438 46.550781 186.691406 47.011719 C 186.984375 47.472656 187.238281 47.953125 187.453125 48.453125 C 187.667969 48.957031 187.839844 49.472656 187.96875 50 C 188.09375 49.472656 188.265625 48.957031 188.480469 48.453125 C 188.695312 47.953125 188.949219 47.472656 189.242188 47.011719 C 189.535156 46.550781 189.863281 46.121094 190.230469 45.714844 C 190.59375 45.308594 190.992188 44.9375 191.417969 44.59375 C 191.84375 44.253906 192.296875 43.953125 192.773438 43.683594 C 193.25 43.417969 193.746094 43.195312 194.261719 43.007812 C 194.773438 42.824219 195.300781 42.683594 195.835938 42.585938 C 196.375 42.488281 196.917969 42.433594 197.464844 42.425781 C 198.082031 42.386719 198.695312 42.414062 199.308594 42.503906 C 199.917969 42.59375 200.515625 42.742188 201.09375 42.957031 C 201.675781 43.167969 202.226562 43.4375 202.753906 43.765625 C 203.277344 44.09375 203.761719 44.46875 204.207031 44.898438 C 204.652344 45.324219 205.050781 45.792969 205.398438 46.300781 C 205.75 46.808594 206.042969 47.347656 206.277344 47.917969 C 206.515625 48.488281 206.691406 49.078125 206.804688 49.683594 C 206.921875 50.289062 206.972656 50.898438 206.960938 51.515625 C 206.960938 65.152344 191.132812 72.730469 187.96875 72.730469 Z M 187.96875 72.730469"/><path fill="#F16D8F" d="M 176.570312 47.726562 C 176.53125 45.796875 177.0625 44.035156 178.167969 42.445312 C 177.5625 42.429688 176.960938 42.46875 176.363281 42.570312 C 175.769531 42.675781 175.1875 42.835938 174.625 43.054688 C 174.0625 43.277344 173.527344 43.550781 173.019531 43.878906 C 172.511719 44.210938 172.046875 44.585938 171.613281 45.011719 C 171.183594 45.433594 170.800781 45.898438 170.464844 46.398438 C 170.132812 46.902344 169.851562 47.433594 169.621094 47.992188 C 169.394531 48.550781 169.226562 49.128906 169.117188 49.722656 C 169.007812 50.3125 168.960938 50.914062 168.972656 51.515625 C 168.972656 65.152344 186.382812 72.730469 187.96875 72.730469 C 191.160156 72.082031 194.046875 70.761719 196.621094 68.765625 C 196.273438 68.863281 195.921875 68.921875 195.5625 68.941406 C 193.980469 68.941406 176.570312 61.363281 176.570312 47.726562 Z M 176.570312 47.726562"/><path fill="#F89BAE" d="M 206.960938 51.515625 C 206.925781 50.539062 206.746094 49.59375 206.417969 48.671875 C 206.089844 47.753906 205.632812 46.90625 205.039062 46.128906 C 204.445312 45.351562 203.75 44.683594 202.949219 44.125 C 202.148438 43.5625 201.28125 43.136719 200.347656 42.847656 C 199.414062 42.554688 198.457031 42.414062 197.476562 42.417969 C 196.5 42.421875 195.542969 42.578125 194.613281 42.878906 C 193.683594 43.179688 192.820312 43.613281 192.027344 44.183594 C 191.230469 44.753906 190.542969 45.429688 189.957031 46.210938 C 190.570312 46.179688 191.183594 46.210938 191.789062 46.304688 C 192.398438 46.398438 192.988281 46.550781 193.5625 46.765625 C 194.140625 46.984375 194.6875 47.253906 195.207031 47.582031 C 195.726562 47.910156 196.207031 48.285156 196.648438 48.714844 C 197.089844 49.140625 197.480469 49.605469 197.828125 50.113281 C 198.171875 50.621094 198.460938 51.160156 198.695312 51.726562 C 198.929688 52.292969 199.101562 52.878906 199.214844 53.480469 C 199.324219 54.082031 199.375 54.691406 199.363281 55.304688 C 199.261719 57.050781 198.953125 58.761719 198.4375 60.433594 C 197.921875 62.105469 197.214844 63.691406 196.3125 65.191406 C 195.414062 66.695312 194.347656 68.066406 193.113281 69.3125 C 191.882812 70.558594 190.515625 71.636719 189.023438 72.554688 C 193.664062 71.414062 206.960938 64.015625 206.960938 51.515625 Z M 206.960938 51.515625"/><path fill="#F6FAFD" d="M 202.28125 47.90625 C 202.6875 48.320312 203.019531 48.769531 203.28125 49.261719 C 203.542969 49.75 203.710938 50.246094 203.789062 50.742188 C 203.867188 51.238281 203.84375 51.699219 203.726562 52.125 C 203.609375 52.550781 203.402344 52.910156 203.105469 53.199219 C 202.808594 53.488281 202.445312 53.691406 202.015625 53.800781 C 201.589844 53.914062 201.125 53.925781 200.628906 53.839844 C 200.132812 53.753906 199.640625 53.578125 199.152344 53.308594 C 198.664062 53.042969 198.21875 52.703125 197.8125 52.289062 C 197.40625 51.878906 197.074219 51.429688 196.8125 50.9375 C 196.550781 50.445312 196.382812 49.953125 196.304688 49.457031 C 196.226562 48.960938 196.246094 48.5 196.367188 48.074219 C 196.484375 47.648438 196.691406 47.289062 196.988281 47 C 197.285156 46.707031 197.648438 46.507812 198.074219 46.394531 C 198.503906 46.285156 198.96875 46.273438 199.464844 46.355469 C 199.960938 46.441406 200.453125 46.621094 200.941406 46.886719 C 201.429688 47.15625 201.875 47.496094 202.28125 47.90625 Z M 202.28125 47.90625"/><path fill="#F6FAFD" d="M 200.152344 54.675781 C 200.351562 54.882812 200.519531 55.109375 200.652344 55.351562 C 200.78125 55.597656 200.867188 55.84375 200.902344 56.09375 C 200.941406 56.34375 200.933594 56.574219 200.871094 56.785156 C 200.8125 57 200.710938 57.179688 200.5625 57.324219 C 200.414062 57.46875 200.230469 57.570312 200.015625 57.625 C 199.800781 57.679688 199.570312 57.6875 199.324219 57.644531 C 199.074219 57.601562 198.828125 57.515625 198.585938 57.378906 C 198.339844 57.246094 198.117188 57.074219 197.914062 56.871094 C 197.710938 56.664062 197.542969 56.441406 197.414062 56.195312 C 197.285156 55.949219 197.199219 55.703125 197.160156 55.453125 C 197.121094 55.203125 197.132812 54.972656 197.191406 54.761719 C 197.25 54.546875 197.355469 54.367188 197.503906 54.222656 C 197.652344 54.078125 197.832031 53.976562 198.046875 53.921875 C 198.261719 53.867188 198.492188 53.859375 198.742188 53.902344 C 198.988281 53.945312 199.234375 54.03125 199.480469 54.167969 C 199.722656 54.300781 199.949219 54.472656 200.152344 54.675781 Z M 200.152344 54.675781"/><path fill="#FABBC3" d="M 225.953125 85.757812 L 225.953125 88.523438 C 225.949219 90.179688 225.597656 91.757812 224.898438 93.257812 C 224.203125 94.761719 223.226562 96.046875 221.964844 97.125 C 217.632812 100.910156 214.558594 114.359375 214.558594 125.722656 L 197.539062 108.789062 L 195.5625 106.820312 C 195.511719 104.15625 195.707031 101.511719 196.160156 98.886719 C 196.609375 96.257812 197.304688 93.699219 198.246094 91.203125 C 199.1875 88.710938 200.351562 86.324219 201.75 84.054688 C 203.144531 81.78125 204.742188 79.660156 206.542969 77.691406 C 207.339844 76.894531 208.234375 76.234375 209.226562 75.703125 C 210.222656 75.175781 211.269531 74.800781 212.375 74.582031 C 213.480469 74.367188 214.59375 74.3125 215.714844 74.425781 C 216.835938 74.535156 217.917969 74.808594 218.957031 75.242188 C 220 75.671875 220.953125 76.246094 221.820312 76.960938 C 222.691406 77.675781 223.4375 78.503906 224.058594 79.441406 C 224.683594 80.375 225.15625 81.382812 225.476562 82.460938 C 225.800781 83.535156 225.957031 84.636719 225.953125 85.757812 Z M 225.953125 85.757812"/><g clip-path="url(#a)"><path fill="#3D4257" d="M 232.644531 138.367188 L 218.410156 124.199219 C 218.675781 113.042969 221.703125 102.386719 224.449219 99.988281 C 225.273438 99.273438 226.015625 98.484375 226.671875 97.613281 C 227.328125 96.742188 227.886719 95.816406 228.34375 94.824219 C 228.800781 93.835938 229.148438 92.8125 229.386719 91.75 C 229.621094 90.6875 229.746094 89.609375 229.75 88.519531 L 229.75 85.761719 C 229.753906 85.003906 229.695312 84.253906 229.582031 83.503906 C 229.472656 82.753906 229.304688 82.015625 229.082031 81.292969 C 228.855469 80.566406 228.582031 79.863281 228.253906 79.179688 C 227.925781 78.5 227.546875 77.84375 227.121094 77.214844 C 226.695312 76.589844 226.222656 75.996094 225.707031 75.441406 C 225.191406 74.882812 224.636719 74.367188 224.042969 73.894531 C 223.453125 73.421875 222.828125 72.992188 222.171875 72.613281 C 221.515625 72.230469 220.832031 71.902344 220.125 71.621094 C 219.441406 71.335938 218.742188 71.105469 218.023438 70.925781 C 217.304688 70.746094 216.574219 70.625 215.835938 70.554688 C 215.097656 70.484375 214.359375 70.46875 213.621094 70.511719 C 212.882812 70.554688 212.148438 70.652344 211.421875 70.804688 C 210.699219 70.957031 209.988281 71.164062 209.292969 71.421875 C 208.601562 71.679688 207.929688 71.992188 207.285156 72.351562 C 206.636719 72.710938 206.019531 73.117188 205.433594 73.570312 C 204.851562 74.023438 204.300781 74.519531 203.792969 75.054688 C 200.78125 78.296875 198.3125 81.90625 196.386719 85.886719 C 194.460938 89.867188 193.164062 94.039062 192.496094 98.40625 L 167.332031 73.40625 C 166.625 72.703125 165.851562 72.074219 165.019531 71.519531 C 164.1875 70.96875 163.308594 70.5 162.382812 70.121094 C 161.457031 69.738281 160.503906 69.453125 159.523438 69.257812 C 158.542969 69.0625 157.550781 68.964844 156.550781 68.964844 C 155.550781 68.964844 154.558594 69.0625 153.578125 69.257812 C 152.597656 69.453125 151.644531 69.738281 150.71875 70.121094 C 149.792969 70.5 148.914062 70.96875 148.082031 71.519531 C 147.25 72.074219 146.476562 72.703125 145.769531 73.40625 C 145.058594 74.109375 144.425781 74.878906 143.867188 75.707031 C 143.308594 76.535156 142.835938 77.410156 142.453125 78.332031 C 142.070312 79.253906 141.777344 80.203125 141.582031 81.183594 C 141.386719 82.164062 141.289062 83.152344 141.289062 84.148438 C 141.289062 85.148438 141.386719 86.136719 141.582031 87.117188 C 141.777344 88.09375 142.070312 89.046875 142.453125 89.96875 C 142.835938 90.886719 143.308594 91.765625 143.867188 92.59375 C 144.425781 93.421875 145.058594 94.1875 145.769531 94.890625 L 161.226562 110.269531 C 160.6875 110.410156 160.15625 110.582031 159.636719 110.785156 C 159.113281 110.984375 158.605469 111.214844 158.109375 111.472656 C 157.613281 111.730469 157.132812 112.015625 156.667969 112.324219 C 156.203125 112.632812 155.757812 112.96875 155.328125 113.328125 C 154.902344 113.6875 154.496094 114.066406 154.109375 114.472656 C 153.722656 114.875 153.359375 115.296875 153.019531 115.742188 C 152.683594 116.183594 152.367188 116.644531 152.082031 117.125 C 151.792969 117.601562 151.53125 118.09375 151.296875 118.601562 C 151.0625 119.105469 150.859375 119.625 150.679688 120.152344 C 150.503906 120.683594 150.359375 121.21875 150.242188 121.765625 C 150.121094 122.308594 150.035156 122.859375 149.980469 123.414062 C 149.921875 123.96875 149.894531 124.523438 149.902344 125.082031 C 149.90625 125.640625 149.941406 126.195312 150.007812 126.75 C 150.074219 127.304688 150.167969 127.851562 150.296875 128.394531 C 150.421875 128.9375 150.578125 129.472656 150.761719 130 C 150.949219 130.523438 151.164062 131.039062 151.40625 131.542969 C 150.765625 131.667969 150.136719 131.832031 149.519531 132.035156 C 148.898438 132.242188 148.296875 132.484375 147.707031 132.769531 C 147.121094 133.050781 146.554688 133.367188 146.007812 133.722656 C 145.460938 134.078125 144.941406 134.46875 144.445312 134.890625 C 143.949219 135.3125 143.484375 135.761719 143.042969 136.246094 C 142.605469 136.726562 142.203125 137.234375 141.828125 137.765625 C 141.457031 138.300781 141.121094 138.855469 140.820312 139.433594 C 140.515625 140.007812 140.253906 140.601562 140.03125 141.210938 C 139.804688 141.824219 139.621094 142.445312 139.476562 143.078125 C 139.332031 143.714844 139.230469 144.355469 139.167969 145 C 139.105469 145.648438 139.085938 146.296875 139.105469 146.945312 C 139.128906 147.597656 139.191406 148.242188 139.296875 148.882812 C 139.402344 149.523438 139.546875 150.15625 139.734375 150.78125 C 139.917969 151.402344 140.144531 152.011719 140.410156 152.605469 C 140.671875 153.199219 140.976562 153.773438 141.3125 154.332031 C 141.652344 154.886719 142.027344 155.417969 142.433594 155.925781 C 141.132812 156.257812 139.894531 156.753906 138.726562 157.414062 C 137.554688 158.074219 136.492188 158.871094 135.535156 159.8125 C 134.578125 160.753906 133.757812 161.800781 133.082031 162.957031 C 132.402344 164.113281 131.886719 165.335938 131.53125 166.628906 C 131.179688 167.921875 131 169.238281 130.996094 170.578125 C 130.992188 171.917969 131.160156 173.238281 131.507812 174.53125 C 131.855469 175.824219 132.363281 177.054688 133.035156 178.214844 C 133.707031 179.375 134.519531 180.425781 135.46875 181.375 L 162.472656 208.246094 C 163.449219 209.210938 164.46875 210.128906 165.53125 210.996094 C 166.597656 211.863281 167.699219 212.675781 168.84375 213.433594 C 169.988281 214.191406 171.167969 214.894531 172.378906 215.539062 C 173.59375 216.179688 174.835938 216.765625 176.105469 217.289062 C 177.375 217.808594 178.667969 218.269531 179.984375 218.664062 C 181.296875 219.0625 182.628906 219.394531 183.976562 219.660156 C 185.324219 219.925781 186.683594 220.125 188.050781 220.261719 C 189.417969 220.394531 190.789062 220.460938 192.164062 220.460938 C 193.535156 220.460938 194.90625 220.394531 196.273438 220.261719 C 197.640625 220.125 199 219.925781 200.347656 219.660156 C 201.695312 219.394531 203.027344 219.0625 204.34375 218.664062 C 205.65625 218.269531 206.949219 217.808594 208.21875 217.289062 C 209.492188 216.765625 210.730469 216.179688 211.945312 215.539062 C 213.15625 214.894531 214.335938 214.191406 215.480469 213.433594 C 216.625 212.675781 217.730469 211.863281 218.792969 210.996094 C 219.855469 210.128906 220.875 209.210938 221.851562 208.246094 L 232.652344 197.496094 C 233.625 196.527344 234.546875 195.515625 235.417969 194.457031 C 236.289062 193.402344 237.109375 192.304688 237.871094 191.167969 C 238.636719 190.027344 239.339844 188.855469 239.988281 187.648438 C 240.636719 186.441406 241.222656 185.207031 241.75 183.941406 C 242.277344 182.679688 242.738281 181.390625 243.136719 180.082031 C 243.535156 178.769531 243.871094 177.445312 244.136719 176.101562 C 244.40625 174.761719 244.609375 173.40625 244.742188 172.046875 C 244.878906 170.683594 244.945312 169.316406 244.945312 167.949219 C 244.945312 166.578125 244.878906 165.214844 244.742188 163.851562 C 244.609375 162.488281 244.40625 161.136719 244.136719 159.792969 C 243.871094 158.453125 243.535156 157.125 243.136719 155.816406 C 242.738281 154.507812 242.277344 153.21875 241.75 151.953125 C 241.222656 150.691406 240.636719 149.453125 239.988281 148.246094 C 239.339844 147.039062 238.636719 145.867188 237.871094 144.730469 C 237.109375 143.59375 236.289062 142.496094 235.417969 141.4375 C 234.546875 140.382812 233.625 139.367188 232.652344 138.402344 Z M 209.257812 80.304688 C 209.757812 79.769531 210.332031 79.324219 210.96875 78.964844 C 211.609375 78.605469 212.289062 78.351562 213.007812 78.203125 C 213.726562 78.054688 214.453125 78.019531 215.183594 78.09375 C 215.914062 78.167969 216.613281 78.351562 217.289062 78.644531 C 218.007812 78.921875 218.671875 79.300781 219.277344 79.777344 C 219.878906 80.253906 220.398438 80.8125 220.835938 81.449219 C 221.269531 82.082031 221.597656 82.769531 221.824219 83.503906 C 222.050781 84.242188 222.160156 84.992188 222.15625 85.761719 L 222.15625 88.519531 C 222.140625 89.632812 221.898438 90.691406 221.421875 91.695312 C 220.949219 92.703125 220.289062 93.566406 219.441406 94.285156 C 215.144531 98.039062 212.363281 107.625 211.273438 117.101562 L 200.238281 106.117188 L 199.425781 105.3125 C 199.457031 103.019531 199.691406 100.746094 200.132812 98.496094 C 200.574219 96.242188 201.214844 94.050781 202.054688 91.914062 C 202.894531 89.777344 203.917969 87.734375 205.128906 85.785156 C 206.339844 83.832031 207.714844 82.007812 209.257812 80.304688 Z M 227.28125 192.113281 L 216.480469 202.863281 C 215.679688 203.65625 214.847656 204.40625 213.972656 205.117188 C 213.101562 205.824219 212.195312 206.492188 211.261719 207.113281 C 210.324219 207.734375 209.355469 208.308594 208.363281 208.835938 C 207.371094 209.363281 206.351562 209.84375 205.3125 210.269531 C 204.269531 210.699219 203.210938 211.074219 202.132812 211.398438 C 201.054688 211.726562 199.964844 211.996094 198.859375 212.214844 C 197.757812 212.433594 196.644531 212.597656 195.523438 212.707031 C 194.402344 212.816406 193.28125 212.871094 192.15625 212.871094 C 191.027344 212.871094 189.90625 212.816406 188.785156 212.707031 C 187.664062 212.597656 186.554688 212.433594 185.449219 212.214844 C 184.34375 211.996094 183.253906 211.726562 182.175781 211.398438 C 181.097656 211.074219 180.039062 210.699219 179 210.269531 C 177.957031 209.84375 176.941406 209.363281 175.945312 208.835938 C 174.953125 208.308594 173.988281 207.734375 173.050781 207.113281 C 172.113281 206.492188 171.207031 205.824219 170.335938 205.117188 C 169.464844 204.40625 168.628906 203.65625 167.832031 202.863281 L 140.828125 175.992188 C 140.472656 175.636719 140.15625 175.25 139.878906 174.832031 C 139.597656 174.414062 139.363281 173.976562 139.171875 173.511719 C 138.984375 173.050781 138.839844 172.574219 138.742188 172.082031 C 138.644531 171.589844 138.597656 171.09375 138.597656 170.59375 C 138.597656 170.09375 138.648438 169.597656 138.746094 169.105469 C 138.847656 168.613281 138.992188 168.136719 139.1875 167.675781 C 139.378906 167.214844 139.617188 166.773438 139.894531 166.359375 C 140.175781 165.945312 140.492188 165.558594 140.847656 165.207031 C 141.203125 164.851562 141.589844 164.539062 142.011719 164.261719 C 142.429688 163.984375 142.867188 163.75 143.332031 163.558594 C 143.796875 163.367188 144.277344 163.222656 144.769531 163.128906 C 145.261719 163.03125 145.757812 162.984375 146.261719 162.984375 C 146.761719 162.984375 147.261719 163.035156 147.753906 163.132812 C 148.246094 163.230469 148.722656 163.378906 149.1875 163.570312 C 149.648438 163.761719 150.089844 164 150.507812 164.277344 C 150.921875 164.558594 151.308594 164.875 151.664062 165.230469 L 154.363281 167.914062 C 154.539062 168.09375 154.730469 168.257812 154.9375 168.398438 C 155.148438 168.542969 155.367188 168.664062 155.597656 168.761719 C 155.832031 168.859375 156.070312 168.933594 156.316406 168.988281 C 156.5625 169.039062 156.8125 169.066406 157.066406 169.066406 C 157.316406 169.070312 157.566406 169.046875 157.816406 168.996094 C 158.0625 168.949219 158.304688 168.878906 158.535156 168.78125 C 158.769531 168.6875 158.992188 168.570312 159.199219 168.429688 C 159.410156 168.289062 159.605469 168.132812 159.78125 167.953125 C 159.960938 167.773438 160.121094 167.582031 160.257812 167.371094 C 160.398438 167.164062 160.515625 166.941406 160.609375 166.707031 C 160.707031 166.476562 160.777344 166.234375 160.824219 165.988281 C 160.871094 165.742188 160.894531 165.492188 160.890625 165.242188 C 160.886719 164.988281 160.859375 164.742188 160.808594 164.496094 C 160.757812 164.25 160.679688 164.011719 160.582031 163.777344 C 160.480469 163.546875 160.359375 163.328125 160.214844 163.121094 C 160.070312 162.914062 159.910156 162.726562 159.726562 162.550781 L 148.929688 151.804688 C 148.574219 151.449219 148.257812 151.066406 147.976562 150.652344 C 147.699219 150.238281 147.460938 149.796875 147.269531 149.335938 C 147.078125 148.875 146.933594 148.398438 146.835938 147.910156 C 146.738281 147.417969 146.6875 146.921875 146.6875 146.421875 C 146.6875 145.921875 146.738281 145.429688 146.835938 144.9375 C 146.933594 144.449219 147.078125 143.972656 147.269531 143.507812 C 147.460938 143.046875 147.699219 142.609375 147.976562 142.195312 C 148.257812 141.777344 148.574219 141.394531 148.929688 141.042969 C 149.285156 140.6875 149.671875 140.371094 150.089844 140.09375 C 150.511719 139.816406 150.953125 139.582031 151.417969 139.390625 C 151.882812 139.199219 152.359375 139.054688 152.851562 138.957031 C 153.347656 138.863281 153.84375 138.8125 154.347656 138.8125 C 154.851562 138.8125 155.347656 138.863281 155.839844 138.957031 C 156.335938 139.054688 156.8125 139.199219 157.277344 139.390625 C 157.742188 139.582031 158.183594 139.816406 158.601562 140.09375 C 159.023438 140.371094 159.410156 140.6875 159.765625 141.042969 L 167.867188 149.101562 C 168.042969 149.285156 168.234375 149.445312 168.441406 149.585938 C 168.652344 149.730469 168.871094 149.851562 169.101562 149.949219 C 169.335938 150.050781 169.574219 150.125 169.820312 150.175781 C 170.066406 150.226562 170.316406 150.253906 170.570312 150.253906 C 170.820312 150.257812 171.070312 150.234375 171.320312 150.1875 C 171.566406 150.136719 171.808594 150.066406 172.039062 149.972656 C 172.273438 149.875 172.496094 149.757812 172.703125 149.617188 C 172.914062 149.480469 173.109375 149.320312 173.285156 149.140625 C 173.464844 148.964844 173.625 148.769531 173.761719 148.5625 C 173.902344 148.351562 174.019531 148.128906 174.113281 147.898438 C 174.210938 147.664062 174.28125 147.425781 174.328125 147.175781 C 174.375 146.929688 174.398438 146.679688 174.394531 146.429688 C 174.394531 146.179688 174.367188 145.929688 174.3125 145.683594 C 174.261719 145.4375 174.183594 145.199219 174.085938 144.96875 C 173.984375 144.738281 173.863281 144.519531 173.71875 144.3125 C 173.578125 144.105469 173.414062 143.914062 173.230469 143.738281 L 159.726562 130.308594 C 159.375 129.953125 159.058594 129.570312 158.777344 129.15625 C 158.5 128.738281 158.265625 128.300781 158.070312 127.839844 C 157.878906 127.378906 157.734375 126.902344 157.636719 126.414062 C 157.539062 125.921875 157.492188 125.425781 157.492188 124.929688 C 157.492188 124.429688 157.539062 123.933594 157.636719 123.441406 C 157.734375 122.953125 157.878906 122.476562 158.070312 122.015625 C 158.265625 121.554688 158.5 121.117188 158.777344 120.699219 C 159.058594 120.285156 159.375 119.902344 159.726562 119.546875 C 160.082031 119.199219 160.460938 118.886719 160.875 118.613281 C 161.289062 118.335938 161.722656 118.105469 162.179688 117.914062 C 162.640625 117.722656 163.113281 117.578125 163.597656 117.476562 C 164.085938 117.378906 164.574219 117.324219 165.070312 117.320312 C 165.570312 117.316406 166.0625 117.359375 166.550781 117.449219 C 167.035156 117.539062 167.511719 117.675781 167.972656 117.855469 C 168.433594 118.039062 168.875 118.261719 169.292969 118.53125 C 169.710938 118.796875 170.101562 119.101562 170.460938 119.441406 L 181.371094 130.308594 C 181.546875 130.488281 181.738281 130.648438 181.949219 130.792969 C 182.15625 130.933594 182.375 131.054688 182.605469 131.152344 C 182.839844 131.253906 183.078125 131.328125 183.324219 131.378906 C 183.570312 131.429688 183.820312 131.457031 184.074219 131.460938 C 184.324219 131.460938 184.574219 131.4375 184.824219 131.390625 C 185.070312 131.34375 185.3125 131.269531 185.542969 131.175781 C 185.777344 131.078125 186 130.960938 186.207031 130.824219 C 186.417969 130.683594 186.613281 130.523438 186.789062 130.347656 C 186.96875 130.167969 187.128906 129.972656 187.265625 129.765625 C 187.40625 129.554688 187.523438 129.332031 187.617188 129.101562 C 187.714844 128.867188 187.785156 128.628906 187.832031 128.378906 C 187.878906 128.132812 187.902344 127.882812 187.898438 127.632812 C 187.898438 127.382812 187.871094 127.132812 187.816406 126.886719 C 187.765625 126.640625 187.6875 126.402344 187.589844 126.171875 C 187.488281 125.941406 187.367188 125.722656 187.222656 125.515625 C 187.082031 125.308594 186.917969 125.117188 186.734375 124.941406 L 175.933594 114.195312 L 175.777344 114.042969 L 151.121094 89.507812 C 150.765625 89.15625 150.445312 88.773438 150.167969 88.359375 C 149.886719 87.945312 149.648438 87.507812 149.457031 87.042969 C 149.265625 86.582031 149.117188 86.105469 149.019531 85.617188 C 148.921875 85.125 148.875 84.628906 148.875 84.128906 C 148.875 83.628906 148.921875 83.136719 149.019531 82.644531 C 149.117188 82.15625 149.265625 81.679688 149.457031 81.21875 C 149.648438 80.753906 149.886719 80.316406 150.167969 79.902344 C 150.445312 79.488281 150.765625 79.105469 151.121094 78.75 C 151.476562 78.398438 151.863281 78.082031 152.28125 77.804688 C 152.703125 77.527344 153.144531 77.292969 153.609375 77.101562 C 154.074219 76.910156 154.550781 76.765625 155.046875 76.667969 C 155.539062 76.570312 156.035156 76.523438 156.539062 76.523438 C 157.042969 76.523438 157.539062 76.570312 158.03125 76.667969 C 158.527344 76.765625 159.003906 76.910156 159.46875 77.101562 C 159.933594 77.292969 160.375 77.527344 160.796875 77.804688 C 161.214844 78.082031 161.601562 78.398438 161.957031 78.75 L 227.292969 143.730469 C 228.089844 144.523438 228.84375 145.351562 229.558594 146.21875 C 230.273438 147.082031 230.941406 147.980469 231.566406 148.914062 C 232.191406 149.84375 232.769531 150.804688 233.300781 151.792969 C 233.832031 152.78125 234.3125 153.792969 234.742188 154.828125 C 235.175781 155.863281 235.550781 156.914062 235.878906 157.988281 C 236.207031 159.0625 236.480469 160.148438 236.699219 161.246094 C 236.917969 162.34375 237.082031 163.453125 237.195312 164.566406 C 237.304688 165.683594 237.359375 166.800781 237.359375 167.921875 C 237.359375 169.042969 237.304688 170.160156 237.195312 171.277344 C 237.082031 172.390625 236.917969 173.5 236.699219 174.597656 C 236.480469 175.699219 236.207031 176.785156 235.878906 177.855469 C 235.550781 178.929688 235.175781 179.980469 234.742188 181.015625 C 234.3125 182.050781 233.832031 183.0625 233.300781 184.050781 C 232.769531 185.039062 232.191406 186 231.566406 186.929688 C 230.941406 187.863281 230.273438 188.761719 229.558594 189.625 C 228.84375 190.492188 228.089844 191.320312 227.292969 192.113281 Z M 227.28125 192.113281"/></g><path fill="#3D4257" d="M 187.96875 76.515625 C 192.84375 76.515625 210.757812 67.425781 210.757812 51.515625 C 210.722656 50.214844 210.5 48.945312 210.089844 47.707031 C 209.679688 46.472656 209.097656 45.320312 208.347656 44.257812 C 207.597656 43.191406 206.707031 42.257812 205.679688 41.453125 C 204.652344 40.648438 203.527344 40.011719 202.3125 39.539062 C 201.09375 39.066406 199.835938 38.777344 198.535156 38.675781 C 197.230469 38.574219 195.941406 38.664062 194.667969 38.941406 C 193.390625 39.21875 192.183594 39.671875 191.042969 40.304688 C 189.902344 40.941406 188.875 41.722656 187.96875 42.660156 C 187.058594 41.722656 186.03125 40.941406 184.890625 40.304688 C 183.75 39.671875 182.542969 39.21875 181.265625 38.941406 C 179.992188 38.664062 178.703125 38.574219 177.398438 38.675781 C 176.097656 38.777344 174.839844 39.066406 173.621094 39.539062 C 172.40625 40.011719 171.28125 40.648438 170.253906 41.453125 C 169.226562 42.257812 168.335938 43.191406 167.585938 44.257812 C 166.835938 45.320312 166.253906 46.472656 165.84375 47.707031 C 165.433594 48.945312 165.210938 50.214844 165.175781 51.515625 C 165.175781 67.507812 184.390625 76.515625 187.96875 76.515625 Z M 178.46875 46.210938 C 179.5 46.210938 182.625 46.210938 184.382812 51.242188 C 184.511719 51.613281 184.695312 51.957031 184.929688 52.269531 C 185.167969 52.585938 185.445312 52.855469 185.769531 53.082031 C 186.089844 53.308594 186.4375 53.484375 186.8125 53.601562 C 187.1875 53.722656 187.574219 53.78125 187.96875 53.78125 C 188.359375 53.78125 188.746094 53.722656 189.121094 53.601562 C 189.496094 53.484375 189.84375 53.308594 190.164062 53.082031 C 190.488281 52.855469 190.765625 52.585938 191.003906 52.269531 C 191.238281 51.957031 191.421875 51.613281 191.554688 51.242188 C 193.308594 46.210938 196.433594 46.210938 197.464844 46.210938 C 197.828125 46.1875 198.191406 46.199219 198.554688 46.246094 C 198.917969 46.296875 199.269531 46.378906 199.617188 46.503906 C 199.960938 46.625 200.289062 46.777344 200.601562 46.96875 C 200.914062 47.15625 201.203125 47.375 201.472656 47.625 C 201.738281 47.875 201.976562 48.148438 202.1875 48.445312 C 202.398438 48.742188 202.578125 49.058594 202.722656 49.394531 C 202.867188 49.730469 202.976562 50.074219 203.050781 50.433594 C 203.125 50.789062 203.164062 51.152344 203.160156 51.515625 C 203.160156 61.980469 191.035156 68.164062 188.167969 68.878906 C 185.476562 67.917969 172.773438 61.632812 172.773438 51.515625 C 172.773438 51.152344 172.808594 50.789062 172.882812 50.433594 C 172.957031 50.074219 173.066406 49.730469 173.210938 49.394531 C 173.355469 49.058594 173.535156 48.742188 173.746094 48.445312 C 173.957031 48.148438 174.195312 47.875 174.460938 47.625 C 174.730469 47.375 175.019531 47.15625 175.332031 46.96875 C 175.644531 46.777344 175.972656 46.625 176.320312 46.503906 C 176.664062 46.378906 177.015625 46.296875 177.378906 46.246094 C 177.742188 46.199219 178.105469 46.1875 178.46875 46.210938 Z M 178.46875 46.210938"/><g fill="#3F3E54"><g><g><path d="M 14.082031 -5.921875 C 14.285156 -6.667969 14.253906 -7.585938 14.054688 -8.335938 C 13.394531 -10.75 11.46875 -11.726562 9.253906 -12.300781 C 8.191406 -12.589844 7.097656 -12.761719 6.035156 -13.046875 C 4.742188 -13.421875 4.226562 -14.226562 4.367188 -15.546875 C 4.570312 -17.445312 5.605469 -18.851562 7.097656 -19.945312 C 7.445312 -20.175781 7.960938 -20.261719 8.421875 -20.320312 C 9.484375 -20.460938 10.375 -20.003906 11.265625 -19.484375 C 11.609375 -19.285156 12.097656 -19.34375 12.5 -19.3125 C 12.445312 -19.773438 12.5 -20.320312 12.273438 -20.664062 C 10.890625 -22.820312 7.816406 -23.421875 5.546875 -21.929688 C 3.59375 -20.636719 2.214844 -18.824219 1.695312 -16.496094 C 1.035156 -13.480469 2.441406 -11.066406 5.433594 -10.203125 C 6.207031 -9.972656 7.042969 -9.859375 7.816406 -9.65625 C 8.652344 -9.425781 9.484375 -9.195312 10.230469 -8.792969 C 11.066406 -8.363281 11.324219 -7.5 10.949219 -6.695312 C 9.542969 -3.5625 6.007812 -2.558594 3.878906 -4.082031 C 3.5625 -4.3125 3.132812 -4.511719 2.757812 -4.539062 C 2.269531 -4.570312 1.582031 -4.570312 1.320312 -4.253906 C 1.09375 -3.964844 1.121094 -3.21875 1.320312 -2.816406 C 2.300781 -0.777344 4.109375 -0.0859375 6.035156 0.0273438 C 9.714844 0.0273438 13.21875 -2.527344 14.082031 -5.921875 Z M 14.082031 -5.921875" transform="translate(108.485 329.124)"/></g></g></g><g fill="#3F3E54"><g><g><path d="M 18.136719 -2.988281 C 18.394531 -2.125 18.941406 -1.496094 19.917969 -1.667969 C 20.921875 -1.839844 21.238281 -2.644531 21.152344 -3.507812 C 21.066406 -4.511719 20.894531 -5.546875 20.578125 -6.496094 C 19.515625 -9.597656 18.421875 -12.730469 17.214844 -15.777344 C 16.527344 -17.53125 15.691406 -19.285156 14.65625 -20.894531 C 13.105469 -23.308594 10.921875 -23.394531 9.109375 -21.125 C 8.277344 -20.058594 7.730469 -18.738281 7.242188 -17.472656 C 6.265625 -15.003906 5.289062 -12.53125 4.539062 -10 C 4.023438 -8.191406 1.953125 -7.042969 2.328125 -4.855469 C 2.355469 -4.742188 2.214844 -4.597656 2.183594 -4.484375 C 1.8125 -3.507812 1.351562 -2.558594 1.179688 -1.582031 C 1.09375 -1.121094 1.410156 -0.34375 1.8125 -0.113281 C 2.414062 0.289062 2.757812 -0.375 3.046875 -0.890625 C 3.765625 -2.269531 4.453125 -3.679688 5.230469 -5.03125 C 5.402344 -5.34375 5.863281 -5.71875 6.207031 -5.746094 C 9.859375 -6.035156 13.480469 -6.238281 17.214844 -6.496094 C 17.53125 -5.203125 17.789062 -4.082031 18.136719 -2.988281 Z M 11.726562 -19.65625 C 13.996094 -16.351562 14.828125 -12.761719 16.152344 -9.425781 C 13.046875 -9.140625 10.058594 -8.878906 6.867188 -8.59375 C 8.851562 -12.070312 9.484375 -16.09375 11.726562 -19.65625 Z M 11.726562 -19.65625" transform="translate(123.886 329.124)"/></g></g></g><g fill="#3F3E54"><g><g><path d="M 17.445312 -3.476562 C 16.324219 -4.3125 14.6875 -5 13.078125 -5.660156 C 12.011719 -6.121094 11.007812 -6.523438 10.175781 -6.984375 L 9.683594 -7.242188 L 10.175781 -7.5 C 10.71875 -7.789062 11.324219 -8.019531 11.957031 -8.304688 C 13.910156 -9.140625 15.949219 -10 16.929688 -11.667969 C 18.046875 -13.566406 17.90625 -16.265625 17.242188 -18.136719 C 15.949219 -21.726562 12.445312 -22.761719 8.851562 -22.761719 C 7.644531 -22.761719 6.410156 -22.648438 5.257812 -22.476562 C 5 -22.445312 4.683594 -22.417969 4.367188 -22.386719 C 3.621094 -22.359375 2.789062 -22.332031 2.386719 -21.957031 C 1.867188 -21.496094 1.839844 -20.433594 1.78125 -19.601562 C 1.78125 -19.3125 1.78125 -19.082031 1.753906 -18.851562 C 1.464844 -16.351562 1.292969 -13.046875 1.234375 -9.023438 C 1.207031 -7.445312 1.179688 -4.28125 1.179688 -2.988281 C 1.179688 -2.84375 1.179688 -2.671875 1.179688 -2.472656 C 1.121094 -1.320312 1.148438 -0.402344 1.925781 -0.0859375 C 2.242188 0.0585938 2.5 0.0585938 2.703125 -0.0859375 C 3.707031 -0.804688 3.5625 -4.484375 3.507812 -5.863281 C 3.507812 -6.148438 3.507812 -6.351562 3.507812 -6.496094 L 3.507812 -6.957031 L 3.910156 -6.753906 C 4.597656 -6.464844 5.289062 -6.148438 5.976562 -5.863281 C 7.445312 -5.230469 8.96875 -4.570312 10.433594 -3.878906 C 11.035156 -3.5625 11.667969 -3.191406 12.273438 -2.816406 C 13.480469 -2.070312 14.742188 -1.292969 16.035156 -1.121094 C 17.042969 -1.007812 17.820312 -1.523438 18.046875 -2.039062 C 18.25 -2.527344 18.019531 -3.019531 17.445312 -3.476562 Z M 5.144531 -9.371094 C 4.714844 -9.28125 4.28125 -9.226562 3.878906 -9.167969 L 3.507812 -9.109375 L 3.535156 -9.457031 C 3.5625 -10.261719 3.59375 -11.179688 3.621094 -12.128906 C 3.679688 -13.59375 3.734375 -15.117188 3.824219 -16.382812 C 3.851562 -16.554688 3.851562 -16.726562 3.851562 -16.898438 C 3.910156 -17.933594 3.964844 -19.199219 4.828125 -19.800781 C 5.605469 -20.347656 6.984375 -20.234375 8.074219 -20.117188 C 8.335938 -20.089844 8.59375 -20.058594 8.792969 -20.058594 C 9.023438 -20.058594 9.253906 -20.058594 9.511719 -20.03125 C 10.75 -20.003906 12.1875 -19.972656 13.25 -19.34375 C 14.285156 -18.738281 14.945312 -17.445312 15.03125 -15.863281 C 15.089844 -14.199219 14.515625 -12.730469 13.535156 -11.984375 C 11.207031 -10.316406 7.988281 -9.800781 5.144531 -9.371094 Z M 5.144531 -9.371094" transform="translate(146.242 329.124)"/></g></g></g><g fill="#3F3E54"><g><g><path d="M 18.136719 -2.988281 C 18.394531 -2.125 18.941406 -1.496094 19.917969 -1.667969 C 20.921875 -1.839844 21.238281 -2.644531 21.152344 -3.507812 C 21.066406 -4.511719 20.894531 -5.546875 20.578125 -6.496094 C 19.515625 -9.597656 18.421875 -12.730469 17.214844 -15.777344 C 16.527344 -17.53125 15.691406 -19.285156 14.65625 -20.894531 C 13.105469 -23.308594 10.921875 -23.394531 9.109375 -21.125 C 8.277344 -20.058594 7.730469 -18.738281 7.242188 -17.472656 C 6.265625 -15.003906 5.289062 -12.53125 4.539062 -10 C 4.023438 -8.191406 1.953125 -7.042969 2.328125 -4.855469 C 2.355469 -4.742188 2.214844 -4.597656 2.183594 -4.484375 C 1.8125 -3.507812 1.351562 -2.558594 1.179688 -1.582031 C 1.09375 -1.121094 1.410156 -0.34375 1.8125 -0.113281 C 2.414062 0.289062 2.757812 -0.375 3.046875 -0.890625 C 3.765625 -2.269531 4.453125 -3.679688 5.230469 -5.03125 C 5.402344 -5.34375 5.863281 -5.71875 6.207031 -5.746094 C 9.859375 -6.035156 13.480469 -6.238281 17.214844 -6.496094 C 17.53125 -5.203125 17.789062 -4.082031 18.136719 -2.988281 Z M 11.726562 -19.65625 C 13.996094 -16.351562 14.828125 -12.761719 16.152344 -9.425781 C 13.046875 -9.140625 10.058594 -8.878906 6.867188 -8.59375 C 8.851562 -12.070312 9.484375 -16.09375 11.726562 -19.65625 Z M 11.726562 -19.65625" transform="translate(165.58 329.124)"/></g></g></g><g fill="#3F3E54"><g><g><path d="M 12.617188 -1.292969 C 12.300781 -3.160156 11.984375 -5 11.609375 -6.867188 C 11.324219 -8.164062 10.261719 -8.59375 9.109375 -7.847656 C 8.738281 -7.617188 8.390625 -7.242188 7.988281 -7.070312 C 7.15625 -6.726562 6.292969 -6.496094 5.433594 -6.238281 C 5.375 -6.351562 5.316406 -6.496094 5.230469 -6.640625 C 5.777344 -7.761719 6.4375 -8.707031 7.816406 -8.9375 C 8.910156 -9.109375 9.457031 -9.714844 9.371094 -10.519531 C 9.28125 -11.324219 8.59375 -11.785156 7.53125 -11.839844 C 6.839844 -11.871094 6.121094 -11.871094 5.460938 -12.097656 C 4.914062 -12.242188 4.453125 -12.703125 3.964844 -13.019531 C 4.453125 -13.621094 4.914062 -14.3125 5.488281 -14.828125 C 5.746094 -15.03125 6.292969 -15.03125 6.640625 -14.917969 C 7.359375 -14.6875 8.046875 -14.398438 8.707031 -13.996094 C 9.859375 -13.304688 10.921875 -13.679688 11.121094 -15.03125 C 11.4375 -17.617188 11.726562 -20.175781 11.925781 -22.734375 C 11.957031 -23.078125 11.582031 -23.683594 11.292969 -23.769531 C 10.980469 -23.824219 10.433594 -23.507812 10.230469 -23.191406 C 9.914062 -22.675781 9.742188 -22.042969 9.597656 -21.410156 C 9.28125 -20.03125 9.023438 -18.652344 8.765625 -17.332031 C 7.703125 -17.445312 6.695312 -17.675781 5.691406 -17.617188 C 3.707031 -17.53125 1.78125 -15.777344 1.265625 -13.738281 C 0.863281 -12.097656 1.464844 -11.066406 3.535156 -9.828125 C 3.5625 -9.800781 3.59375 -9.773438 3.59375 -9.773438 C 3.21875 -9.023438 2.757812 -8.304688 2.5 -7.558594 C 1.722656 -5.402344 2.757812 -3.734375 5 -3.648438 C 6.324219 -3.59375 7.644531 -3.964844 9.082031 -4.167969 C 9.109375 -4.023438 9.140625 -3.621094 9.226562 -3.246094 C 9.542969 -2.269531 9.773438 -1.265625 10.203125 -0.34375 C 10.488281 0.316406 11.179688 0.546875 11.898438 0.257812 C 12.617188 0 12.730469 -0.632812 12.617188 -1.292969 Z M 12.617188 -1.292969" transform="translate(199.17 329.124)"/></g></g></g><g fill="#3F3E54"><g><g><path d="M 10.261719 -6.292969 C 8.277344 -10.921875 6.292969 -15.546875 4.28125 -20.175781 C 3.9375 -20.980469 3.535156 -21.785156 2.960938 -22.417969 C 2.671875 -22.734375 1.839844 -22.878906 1.496094 -22.675781 C 1.207031 -22.53125 1.121094 -21.757812 1.179688 -21.269531 C 1.207031 -20.75 1.496094 -20.261719 1.695312 -19.773438 C 3.734375 -14.601562 5.71875 -9.425781 7.789062 -4.253906 C 8.25 -3.132812 8.9375 -2.070312 9.570312 -1.035156 C 10.488281 0.402344 12.042969 0.34375 12.875 -1.121094 C 13.277344 -1.898438 13.652344 -2.703125 13.96875 -3.535156 C 16.179688 -9.3125 18.652344 -15.003906 22.101562 -20.175781 C 22.734375 -21.125 22.617188 -21.929688 21.957031 -22.359375 C 21.296875 -22.789062 20.578125 -22.503906 19.917969 -21.613281 C 19.859375 -21.496094 19.773438 -21.382812 19.6875 -21.269531 C 16.839844 -16.785156 14.3125 -12.15625 12.328125 -7.242188 C 11.984375 -6.378906 11.554688 -5.546875 11.09375 -4.484375 C 10.75 -5.230469 10.488281 -5.777344 10.261719 -6.292969 Z M 10.261719 -6.292969" transform="translate(224.255 329.124)"/></g></g></g><g fill="#3F3E54"><g><g><path d="M 7.15625 -15.722656 C 5.804688 -17.875 4.398438 -19.972656 2.988281 -22.101562 C 2.617188 -22.617188 2.039062 -23.050781 1.496094 -22.5625 C 1.179688 -22.300781 1.09375 -21.554688 1.207031 -21.09375 C 1.320312 -20.492188 1.695312 -19.972656 2.011719 -19.398438 C 3.421875 -16.753906 4.828125 -14.113281 6.265625 -11.46875 C 6.550781 -10.949219 6.78125 -10.347656 7.242188 -10 C 7.847656 -9.542969 7.875 -9.023438 7.875 -8.390625 C 7.847656 -6.148438 7.847656 -3.910156 7.902344 -1.636719 C 7.933594 -0.546875 8.566406 0.0585938 9.371094 0 C 10.144531 -0.0585938 10.632812 -0.777344 10.578125 -1.839844 C 10.578125 -2.039062 10.546875 -2.242188 10.519531 -2.441406 C 10.289062 -4.683594 10.03125 -6.898438 9.828125 -9.140625 C 9.800781 -9.398438 9.859375 -9.742188 10 -9.945312 C 12.273438 -13.078125 14.570312 -16.179688 16.871094 -19.285156 C 17.503906 -20.148438 17.53125 -20.953125 16.898438 -21.410156 C 16.09375 -21.957031 15.433594 -21.613281 14.917969 -20.953125 C 13.910156 -19.746094 12.960938 -18.480469 11.984375 -17.214844 C 10.890625 -15.75 9.859375 -14.285156 8.652344 -12.703125 C 8.105469 -13.824219 7.730469 -14.828125 7.15625 -15.722656 Z M 7.15625 -15.722656" transform="translate(247.961 329.124)"/></g></g></g><g fill="#3F3E54"><g><g><path d="M 15.089844 0.429688 C 19.773438 0.429688 22.933594 -0.0585938 25.867188 -0.691406 L 25.867188 -9.886719 C 23.683594 -8.363281 20.664062 -7.386719 17.015625 -7.386719 C 12.703125 -7.386719 9.457031 -8.074219 9.457031 -10.085938 C 9.457031 -11.957031 12.445312 -12.761719 16.210938 -12.761719 C 19.773438 -12.761719 22.878906 -11.640625 24.3125 -10.402344 L 24.976562 -18.796875 C 22.703125 -19.714844 19.113281 -20.550781 14.800781 -20.550781 C 7.15625 -20.550781 0.257812 -17.589844 0.257812 -10.085938 C 0.257812 -2.558594 7.445312 0.429688 15.089844 0.429688 Z M 15.089844 0.429688" transform="translate(28.934 271.617)"/></g></g></g><g fill="#3F3E54"><g><g><path d="M -0.917969 0 L 10.347656 0 C 10.402344 -1.148438 10.605469 -2.527344 11.035156 -4.339844 L 11.121094 -4.683594 L 16.839844 -4.683594 L 16.929688 -4.367188 C 17.359375 -2.558594 17.558594 -1.148438 17.617188 0 L 28.882812 0 C 27.503906 -2.097656 25.867188 -5.660156 24.800781 -8.476562 L 23.566406 -11.640625 C 22.476562 -14.457031 21.46875 -18.019531 21.179688 -20.117188 L 6.78125 -20.117188 C 6.523438 -18.019531 5.488281 -14.457031 4.398438 -11.640625 L 3.191406 -8.476562 C 2.125 -5.660156 0.460938 -2.097656 -0.917969 0 Z M 12.273438 -7.53125 L 12.992188 -9.457031 C 13.480469 -10.835938 13.566406 -11.640625 13.765625 -13.105469 L 14.199219 -13.105469 C 14.371094 -11.753906 14.484375 -10.71875 14.972656 -9.457031 L 15.722656 -7.53125 Z M 12.273438 -7.53125" transform="translate(55.283 271.617)"/></g></g></g><g fill="#3F3E54"><g><g><path d="M 23.421875 0.429688 C 25.519531 0.429688 27.734375 -0.515625 28.453125 -1.722656 L 28.453125 -11.871094 C 27.675781 -10.175781 25.78125 -8.421875 22.648438 -8.421875 C 19.484375 -8.421875 18.796875 -9.226562 17.015625 -9.226562 L 16.984375 -9.226562 L 16.984375 -9.511719 L 17.761719 -9.511719 C 23.652344 -9.511719 27.847656 -11.121094 27.847656 -14.800781 C 27.847656 -18.449219 23.59375 -20.117188 17.703125 -20.117188 L 1.234375 -20.117188 C 1.898438 -18.019531 2.300781 -14.457031 2.300781 -11.640625 L 2.300781 -8.476562 C 2.300781 -5.660156 1.925781 -2.097656 1.234375 0 L 12.414062 0 C 11.726562 -2.097656 11.351562 -5.171875 11.351562 -7.988281 L 11.351562 -8.277344 C 11.554688 -8.363281 11.839844 -8.421875 12.15625 -8.421875 C 17.242188 -8.421875 14.484375 0.429688 23.421875 0.429688 Z M 11.351562 -10.316406 L 11.351562 -12.5 L 16.613281 -12.5 C 17.875 -12.5 18.796875 -12.1875 18.796875 -11.410156 C 18.796875 -10.664062 17.875 -10.316406 16.613281 -10.316406 Z M 11.351562 -10.316406" transform="translate(83.241 271.617)"/></g></g></g><g fill="#3F3E54"><g><g><path d="M 7.472656 0 L 18.625 0 C 17.960938 -2.097656 17.558594 -5.660156 17.558594 -8.476562 L 17.558594 -12.300781 L 19.6875 -12.300781 C 22.273438 -12.300781 24.257812 -12.011719 25.835938 -11.324219 L 24.285156 -20.117188 L 1.695312 -20.117188 L 0.144531 -11.324219 C 1.8125 -12.070312 3.679688 -12.300781 6.324219 -12.300781 L 8.507812 -12.300781 L 8.507812 -8.476562 C 8.507812 -5.660156 8.132812 -2.097656 7.472656 0 Z M 7.472656 0" transform="translate(112.234 271.617)"/></g></g></g><g fill="#3F3E54"><g><g><path d="M 14.226562 0.429688 C 22.246094 0.429688 28.164062 -3.105469 28.164062 -10.058594 C 28.164062 -17.015625 22.246094 -20.550781 14.226562 -20.550781 C 6.179688 -20.550781 0.257812 -17.015625 0.257812 -10.058594 C 0.257812 -3.105469 6.179688 0.429688 14.226562 0.429688 Z M 14.226562 -6.523438 C 11.351562 -6.523438 9.484375 -7.730469 9.484375 -10.058594 C 9.484375 -12.386719 11.351562 -13.59375 14.226562 -13.59375 C 17.042969 -13.59375 18.941406 -12.386719 18.941406 -10.058594 C 18.941406 -7.730469 17.042969 -6.523438 14.226562 -6.523438 Z M 14.226562 -6.523438" transform="translate(138.21 271.617)"/></g></g></g><g fill="#3F3E54"><g><g><path d="M 14.226562 0.429688 C 22.246094 0.429688 28.164062 -3.105469 28.164062 -10.058594 C 28.164062 -17.015625 22.246094 -20.550781 14.226562 -20.550781 C 6.179688 -20.550781 0.257812 -17.015625 0.257812 -10.058594 C 0.257812 -3.105469 6.179688 0.429688 14.226562 0.429688 Z M 14.226562 -6.523438 C 11.351562 -6.523438 9.484375 -7.730469 9.484375 -10.058594 C 9.484375 -12.386719 11.351562 -13.59375 14.226562 -13.59375 C 17.042969 -13.59375 18.941406 -12.386719 18.941406 -10.058594 C 18.941406 -7.730469 17.042969 -6.523438 14.226562 -6.523438 Z M 14.226562 -6.523438" transform="translate(166.628 271.617)"/></g></g></g><g fill="#3F3E54"><g><g><path d="M 1.234375 0 L 12.414062 0 C 11.871094 -1.753906 11.351562 -6.265625 11.351562 -9.253906 L 11.351562 -9.714844 L 11.8125 -9.714844 L 20.894531 0 L 29.140625 0 L 29.140625 -11.640625 C 29.140625 -14.457031 29.574219 -18.046875 30.207031 -20.117188 L 19.054688 -20.117188 C 19.542969 -18.539062 20.058594 -14.773438 20.058594 -11.871094 L 20.058594 -11.351562 L 19.628906 -11.351562 L 11.640625 -20.089844 L 1.234375 -20.117188 C 1.925781 -18.019531 2.300781 -14.457031 2.300781 -11.640625 L 2.300781 -8.476562 C 2.300781 -5.660156 1.898438 -2.097656 1.234375 0 Z M 1.234375 0" transform="translate(195.047 271.617)"/></g></g></g><g fill="#3F3E54"><g><g><path d="M 1.234375 0 L 12.414062 0 C 11.726562 -2.097656 11.324219 -4.828125 11.324219 -7.644531 L 11.324219 -7.933594 L 17.332031 -7.933594 C 18.738281 -7.933594 20.320312 -7.875 21.355469 -7.730469 L 21.355469 -10.777344 C 20.320312 -10.664062 18.738281 -10.632812 17.332031 -10.632812 L 11.324219 -10.632812 L 11.324219 -12.359375 L 18.910156 -12.359375 C 21.785156 -12.359375 24.542969 -11.984375 25.550781 -11.238281 L 24.34375 -20.117188 L 1.234375 -20.117188 C 1.867188 -18.046875 2.300781 -14.457031 2.300781 -11.640625 L 2.300781 -8.476562 C 2.300781 -5.660156 1.898438 -2.097656 1.234375 0 Z M 1.234375 0" transform="translate(233.522 271.617)"/></g></g></g><g fill="#3F3E54"><g><g><path d="M -0.917969 0 L 10.347656 0 C 10.402344 -1.148438 10.605469 -2.527344 11.035156 -4.339844 L 11.121094 -4.683594 L 16.839844 -4.683594 L 16.929688 -4.367188 C 17.359375 -2.558594 17.558594 -1.148438 17.617188 0 L 28.882812 0 C 27.503906 -2.097656 25.867188 -5.660156 24.800781 -8.476562 L 23.566406 -11.640625 C 22.476562 -14.457031 21.46875 -18.019531 21.179688 -20.117188 L 6.78125 -20.117188 C 6.523438 -18.019531 5.488281 -14.457031 4.398438 -11.640625 L 3.191406 -8.476562 C 2.125 -5.660156 0.460938 -2.097656 -0.917969 0 Z M 12.273438 -7.53125 L 12.992188 -9.457031 C 13.480469 -10.835938 13.566406 -11.640625 13.765625 -13.105469 L 14.199219 -13.105469 C 14.371094 -11.753906 14.484375 -10.71875 14.972656 -9.457031 L 15.722656 -7.53125 Z M 12.273438 -7.53125" transform="translate(259.412 271.617)"/></g></g></g><g fill="#3F3E54"><g><g><path d="M 1.234375 0 L 12.414062 0 C 11.871094 -1.753906 11.351562 -6.265625 11.351562 -9.253906 L 11.351562 -9.714844 L 11.8125 -9.714844 L 20.894531 0 L 29.140625 0 L 29.140625 -11.640625 C 29.140625 -14.457031 29.574219 -18.046875 30.207031 -20.117188 L 19.054688 -20.117188 C 19.542969 -18.539062 20.058594 -14.773438 20.058594 -11.871094 L 20.058594 -11.351562 L 19.628906 -11.351562 L 11.640625 -20.089844 L 1.234375 -20.117188 C 1.925781 -18.019531 2.300781 -14.457031 2.300781 -11.640625 L 2.300781 -8.476562 C 2.300781 -5.660156 1.898438 -2.097656 1.234375 0 Z M 1.234375 0" transform="translate(287.37 271.617)"/></g></g></g><g fill="#3F3E54"><g><g><path d="M 13.910156 0.429688 C 21.984375 0.429688 26.988281 -1.4375 26.988281 -5.863281 C 26.988281 -13.59375 9.914062 -9.339844 9.914062 -12.070312 C 9.914062 -12.730469 11.667969 -13.019531 13.996094 -13.019531 C 18.019531 -13.019531 22.042969 -12.097656 24.601562 -10.664062 L 24.601562 -18.996094 C 21.8125 -19.945312 17.214844 -20.550781 13.652344 -20.550781 C 6.179688 -20.550781 0.574219 -18.910156 0.574219 -14.371094 C 0.574219 -6.4375 17.558594 -10.085938 17.558594 -7.875 C 17.558594 -7.242188 16.035156 -7.042969 13.652344 -7.042969 C 8.25 -7.042969 3.5625 -8.191406 0.691406 -10.546875 L 0.34375 -1.4375 C 3.507812 -0.488281 10.175781 0.429688 13.910156 0.429688 Z M 13.910156 0.429688" transform="translate(318.805 271.617)"/></g></g></g></svg>